<svg version="1.0" xmlns="http://www.w3.org/2000/svg"
 width="564.000000pt" height="572.000000pt" viewBox="0 0 564.000000 572.000000"
 preserveAspectRatio="xMidYMid meet">

<g transform="translate(0.000000,572.000000) scale(0.100000,-0.100000)"
fill="#1c69af" stroke="#1c69af">
<path d="M2825 3604 c-61 -66 -7 -166 81 -149 42 7 68 44 67 93 -2 75 -97 111
-148 56z m105 -24 c11 -11 20 -29 20 -40 0 -25 -34 -60 -58 -60 -30 0 -62 29
-62 57 0 57 61 82 100 43z"/>
<path d="M1985 3427 c-25 -62 -31 -176 -11 -214 16 -33 72 -73 100 -73 12 0
16 -10 16 -46 l0 -45 -34 35 c-36 39 -118 80 -179 92 -38 6 -38 6 -32 -22 14
-63 27 -94 55 -133 34 -46 122 -101 163 -101 22 0 27 -4 27 -25 0 -18 5 -25
20 -25 15 0 20 7 20 25 0 20 5 25 25 25 92 0 201 111 218 223 6 37 5 39 -17
33 -59 -15 -141 -60 -182 -101 -24 -25 -47 -45 -49 -45 -3 0 -5 24 -5 54 0 47
4 59 30 84 32 33 40 84 20 136 -12 34 -68 94 -123 133 l-44 32 -18 -42z m98
-67 c50 -48 51 -51 33 -65 -11 -8 -22 -15 -25 -15 -3 1 -16 23 -29 50 -35 75
-59 63 -27 -13 19 -47 19 -47 -10 -47 -14 0 -28 7 -32 16 -8 21 16 124 28 124
6 0 34 -23 62 -50z m67 -114 c0 -18 -7 -39 -15 -46 -12 -10 -16 -8 -25 15 -14
36 -13 42 8 54 27 16 32 13 32 -23z m-80 -22 c13 -34 13 -44 -4 -44 -20 0 -66
39 -66 56 0 9 11 14 30 14 24 0 33 -6 40 -26z m-120 -105 c52 -23 83 -50 112
-97 23 -38 17 -55 -9 -24 -27 31 -105 93 -111 88 -2 -3 26 -35 64 -71 53 -51
63 -65 44 -60 -34 9 -99 54 -121 85 -10 14 -25 42 -34 63 -18 44 -11 46 55 16z
m378 -21 c-24 -67 -157 -172 -184 -145 -8 8 32 80 58 104 28 26 108 73 125 73
9 0 9 -8 1 -32z"/>
<path d="M2228 3041 c-18 -17 -28 -30 -23 -30 14 0 69 49 62 55 -3 3 -20 -8
-39 -25z"/>
<path d="M3113 3413 c-17 -21 -57 -58 -90 -83 -33 -25 -71 -60 -84 -77 -13
-18 -27 -33 -31 -33 -5 0 -8 29 -8 65 0 51 -3 65 -15 65 -12 0 -15 -15 -15
-75 l0 -75 -43 42 c-47 48 -143 128 -151 128 -10 0 -6 -35 10 -89 20 -69 72
-126 135 -148 l49 -18 0 -129 0 -130 -29 45 c-16 24 -54 69 -86 99 -32 30 -70
75 -86 99 -34 53 -45 40 -36 -42 13 -105 85 -201 173 -232 42 -14 47 -31 30
-101 -7 -31 -6 -32 28 -32 l36 0 0 59 c0 56 2 60 28 69 15 6 35 15 44 20 17 9
18 -11 20 -337 l3 -348 232 -3 233 -2 6 27 c19 77 89 159 161 189 50 21 143
19 195 -4 72 -31 133 -105 152 -184 6 -27 8 -28 76 -28 l70 0 0 89 0 90 -32 3
-33 3 -5 145 c-3 86 -10 154 -17 166 -20 34 -66 49 -283 93 -113 23 -210 47
-216 54 -6 7 -21 57 -34 112 -31 143 -38 160 -71 193 -50 49 -111 62 -285 62
l-154 0 0 -64 c0 -55 -4 -71 -32 -114 -18 -27 -38 -58 -45 -68 -10 -15 -12 4
-10 100 l2 118 53 20 c100 37 174 135 197 261 9 47 -3 47 -42 0z m-31 -110
c-21 -40 -58 -77 -104 -106 -44 -27 -52 -20 -21 22 27 36 134 132 141 126 2
-2 -6 -20 -16 -42z m-262 -103 c25 -35 25 -39 0 -33 -25 7 -100 88 -100 109 0
20 69 -33 100 -76z m547 -99 c23 -11 48 -30 56 -43 8 -12 27 -79 42 -148 15
-69 35 -133 44 -142 10 -11 85 -31 216 -58 110 -22 215 -45 232 -51 56 -18 63
-38 63 -186 l0 -133 -49 0 c-39 0 -60 7 -93 29 -87 59 -192 65 -286 17 -60
-30 -128 -105 -144 -157 l-11 -39 -204 0 -203 0 0 465 0 465 148 0 c123 0 154
-4 189 -19z m-547 -231 c0 -15 -11 -12 -48 10 -34 21 -92 103 -92 129 1 17
140 -122 140 -139z m170 62 c0 -31 -5 -41 -30 -55 -16 -10 -30 -15 -30 -12 0
8 53 105 58 105 1 0 2 -17 2 -38z m1098 -659 c0 -10 -1 -33 -4 -51 -5 -31 -7
-33 -41 -30 -32 3 -37 7 -54 51 l-19 47 59 0 c48 0 58 -3 59 -17z"/>
<path d="M3090 3054 c-34 -14 -40 -37 -40 -155 0 -147 1 -149 111 -149 l79 0
0 -219 c0 -247 1 -251 70 -251 49 0 71 21 99 95 12 33 29 75 37 93 10 22 14
71 14 155 0 122 -3 141 -61 354 -19 71 -34 78 -173 80 -66 1 -128 0 -136 -3z
m239 -10 c17 -4 37 -16 43 -27 8 -16 68 -221 68 -235 0 -1 -33 22 -73 53 -97
72 -105 72 -109 -7 l-3 -63 -77 -3 c-119 -4 -119 -5 -116 141 3 118 4 122 28
134 26 13 184 18 239 7z m-10 -207 c8 -11 5 -19 -16 -38 -21 -19 -25 -20 -20
-6 4 10 7 27 7 38 0 22 13 25 29 6z m78 -57 c14 -11 29 -17 34 -14 5 3 9 -56
9 -135 0 -131 -2 -145 -31 -222 -38 -106 -43 -111 -93 -107 l-41 3 -3 210 c-3
225 0 257 22 249 8 -3 24 4 35 15 26 26 36 26 68 1z"/>
<path d="M1690 2625 c0 -193 2 -225 15 -225 10 0 15 -11 15 -35 0 -35 0 -35
-45 -35 l-45 0 0 -90 0 -90 130 0 c124 0 130 1 130 20 0 12 9 40 20 62 11 23
18 44 15 47 -9 8 -22 -12 -35 -51 l-12 -38 -104 0 -104 0 0 54 0 55 127 -5
c70 -3 130 -7 133 -9 4 -3 18 7 30 20 l23 25 -76 0 c-42 0 -77 2 -77 4 0 1 5
17 11 35 l11 31 282 0 283 0 11 -25 c19 -41 15 -45 -49 -45 l-61 0 29 -33 c29
-33 46 -69 57 -119 l6 -28 265 0 265 0 0 90 c0 83 -1 90 -20 90 -19 0 -20 7
-20 160 l0 160 -125 0 -125 0 0 -160 0 -160 -45 0 c-45 0 -45 0 -45 35 0 24 5
35 15 35 13 0 15 32 15 225 l0 225 -450 0 -450 0 0 -225z m370 155 l0 -40
-130 0 -130 0 0 40 0 40 130 0 130 0 0 -40z m330 35 c0 -2 -8 -20 -17 -40
l-17 -35 -93 0 -93 0 0 40 0 40 110 0 c61 0 110 -2 110 -5z m45 -44 c-8 -17
-22 -31 -30 -31 -19 0 -19 4 0 40 15 28 37 44 43 29 2 -4 -4 -21 -13 -38z
m-675 -146 c0 -158 -2 -185 -15 -185 -13 0 -15 27 -15 185 0 158 2 185 15 185
13 0 15 -27 15 -185z m370 0 c0 -158 -2 -185 -15 -185 -13 0 -15 27 -15 185 0
158 2 185 15 185 13 0 15 -27 15 -185z m370 150 c0 -31 -3 -35 -25 -35 -29 0
-30 2 -10 40 21 40 35 38 35 -5z m50 -150 c0 -117 -4 -185 -10 -185 -6 0 -10
68 -10 185 0 117 4 185 10 185 6 0 10 -68 10 -185z m-490 20 l0 -35 -128 0
c-71 0 -131 2 -134 5 -2 3 -3 18 0 35 l4 30 129 0 129 0 0 -35z m260 30 c0 -4
-7 -19 -15 -35 -15 -28 -19 -30 -75 -30 l-60 0 0 35 0 35 75 0 c41 0 75 -2 75
-5z m58 -2 c-24 -51 -33 -63 -45 -63 -17 0 -16 4 2 40 9 17 23 30 31 30 9 0
14 -3 12 -7z m122 -28 l0 -35 -65 0 -64 0 20 35 c19 32 25 35 65 35 44 0 44 0
44 -35z m370 -165 l0 -140 -95 0 -95 0 0 140 0 140 95 0 95 0 0 -140z m-810
35 l0 -35 -130 0 -130 0 0 35 0 35 130 0 130 0 0 -35z m438 3 l-3 -33 -162 -3
-163 -2 0 35 0 35 166 0 165 0 -3 -32z m-690 -134 c-5 -25 -35 -41 -49 -27
-18 18 -3 43 26 43 19 0 26 -5 23 -16z m712 -10 c0 -21 -4 -25 -22 -22 -15 2
-24 11 -26 26 -3 18 1 22 22 22 21 0 26 -5 26 -26z m385 -129 l0 -50 -241 -3
-241 -2 -18 42 c-10 24 -20 46 -23 50 -4 8 162 13 393 13 l130 0 0 -50z"/>
<path d="M2051 2308 c-115 -57 -143 -220 -55 -318 115 -127 323 -65 359 107
16 78 -51 193 -128 222 -47 18 -128 13 -176 -11z m156 -19 c90 -34 136 -141
99 -230 -28 -66 -81 -99 -159 -99 -132 0 -210 138 -144 254 38 68 132 103 204
75z"/>
<path d="M2092 2234 c-92 -47 -78 -196 21 -222 78 -21 157 34 157 108 0 21 -5
49 -11 62 -26 57 -108 82 -167 52z m97 -39 c71 -36 45 -145 -35 -145 -48 0
-65 9 -79 43 -16 40 -2 82 34 102 33 18 46 18 80 0z"/>
<path d="M3635 2314 c-77 -40 -118 -103 -119 -184 -2 -171 191 -269 327 -166
80 60 107 158 67 241 -25 52 -37 67 -84 99 -31 21 -50 26 -100 26 -36 0 -73
-7 -91 -16z m170 -37 c53 -30 85 -87 85 -153 0 -107 -100 -186 -209 -163 -108
23 -163 147 -109 248 45 84 151 115 233 68z"/>
<path d="M3674 2240 c-11 -4 -33 -23 -48 -41 -25 -29 -28 -39 -23 -83 6 -70
46 -106 118 -106 46 0 55 4 85 36 38 40 45 93 19 143 -24 48 -98 73 -151 51z
m109 -61 c23 -29 22 -84 -3 -109 -29 -29 -84 -27 -115 5 -34 33 -32 70 5 107
26 25 36 29 63 24 18 -3 40 -16 50 -27z"/>
</g>
</svg>
