<svg width="20" height="20" viewBox="0 0 20 20" fill="none" xmlns="http://www.w3.org/2000/svg">
<path d="M1.6665 17.5V7.5L8.33317 2.5L12.8123 5.875C12.4651 5.91667 12.1387 5.99653 11.8332 6.11458C11.5276 6.23264 11.2359 6.38889 10.9582 6.58333L8.33317 4.58333L3.33317 8.33333V15.8333H6.6665V17.5H1.6665ZM8.33317 17.5V15.9167C8.33317 15.625 8.40609 15.3507 8.55192 15.0938C8.69775 14.8368 8.89567 14.6319 9.14567 14.4792C9.78456 14.1042 10.4547 13.8194 11.1561 13.625C11.8575 13.4306 12.5832 13.3333 13.3332 13.3333C14.0832 13.3333 14.8089 13.4306 15.5103 13.625C16.2116 13.8194 16.8818 14.1042 17.5207 14.4792C17.7707 14.6319 17.9686 14.8368 18.1144 15.0938C18.2603 15.3507 18.3332 15.625 18.3332 15.9167V17.5H8.33317ZM10.1248 15.8333H16.5415C16.0554 15.5556 15.5415 15.3472 14.9998 15.2083C14.4582 15.0694 13.9026 15 13.3332 15C12.7637 15 12.2082 15.0694 11.6665 15.2083C11.1248 15.3472 10.6109 15.5556 10.1248 15.8333ZM13.3332 12.5C12.6387 12.5 12.0484 12.2569 11.5623 11.7708C11.0762 11.2847 10.8332 10.6944 10.8332 10C10.8332 9.30556 11.0762 8.71528 11.5623 8.22917C12.0484 7.74306 12.6387 7.5 13.3332 7.5C14.0276 7.5 14.6179 7.74306 15.104 8.22917C15.5901 8.71528 15.8332 9.30556 15.8332 10C15.8332 10.6944 15.5901 11.2847 15.104 11.7708C14.6179 12.2569 14.0276 12.5 13.3332 12.5ZM13.3332 10.8333C13.5693 10.8333 13.7672 10.7535 13.9269 10.5938C14.0866 10.434 14.1665 10.2361 14.1665 10C14.1665 9.76389 14.0866 9.56597 13.9269 9.40625C13.7672 9.24653 13.5693 9.16667 13.3332 9.16667C13.0971 9.16667 12.8991 9.24653 12.7394 9.40625C12.5797 9.56597 12.4998 9.76389 12.4998 10C12.4998 10.2361 12.5797 10.434 12.7394 10.5938C12.8991 10.7535 13.0971 10.8333 13.3332 10.8333Z" fill="#9BA4AE"/>
</svg>
