<svg width="20" height="20" viewBox="0 0 20 20" fill="none" xmlns="http://www.w3.org/2000/svg">
<path d="M3.33317 14.1667V4.16667H1.6665V2.5H4.99984V12.5H17.4998V14.1667H3.33317ZM4.99984 18.3333C4.5415 18.3333 4.14914 18.1701 3.82275 17.8438C3.49637 17.5174 3.33317 17.125 3.33317 16.6667C3.33317 16.2083 3.49637 15.816 3.82275 15.4896C4.14914 15.1632 4.5415 15 4.99984 15C5.45817 15 5.85053 15.1632 6.17692 15.4896C6.50331 15.816 6.6665 16.2083 6.6665 16.6667C6.6665 17.125 6.50331 17.5174 6.17692 17.8438C5.85053 18.1701 5.45817 18.3333 4.99984 18.3333ZM5.83317 11.6667V6.66667H10.8332V11.6667H5.83317ZM7.49984 10H9.1665V8.33333H7.49984V10ZM11.6665 11.6667V6.66667H16.6665V11.6667H11.6665ZM13.3332 10H14.9998V8.33333H13.3332V10ZM15.8332 18.3333C15.3748 18.3333 14.9825 18.1701 14.6561 17.8438C14.3297 17.5174 14.1665 17.125 14.1665 16.6667C14.1665 16.2083 14.3297 15.816 14.6561 15.4896C14.9825 15.1632 15.3748 15 15.8332 15C16.2915 15 16.6839 15.1632 17.0103 15.4896C17.3366 15.816 17.4998 16.2083 17.4998 16.6667C17.4998 17.125 17.3366 17.5174 17.0103 17.8438C16.6839 18.1701 16.2915 18.3333 15.8332 18.3333Z" fill="#9BA4AE"/>
</svg>
